# xmcd
#
# Track frame offsets:
#	150
#	22582
#	41905
#	67040
#	88827
#	107165
#	133612
#	152447
#	174672
#	196465
#
# Disc length: 2864 seconds
#
# Revision: 0
# Processed by: cddbd v1.5.2PL0 Copyright (c) Steve Scherf et al.
# Submitted via: EasyCDDAExtractor 16.0.9.1
#
DISCID=820b2e0a
DTITLE=陶晶瑩 - 陶子愛唱歌愛創作2001晶選集
DYEAR=2001
DGENRE=Pop
TTITLE0=游泳
TTITLE1=瘸鳥
TTITLE2=離開我
TTITLE3=愛喲
TTITLE4=天空不要為我掉眼淚
TTITLE5=我期待
TTITLE6=愛缺
TTITLE7=吻別
TTITLE8=太委屈
TTITLE9=姊姊妹妹站起來
EXTD=
EXTT0=
EXTT1=
EXTT2=
EXTT3=
EXTT4=
EXTT5=
EXTT6=
EXTT7=
EXTT8=
EXTT9=
PLAYORDER=
